<?xml version="1.0" encoding="utf-8"?>
<!-- Generator: Adobe Illustrator 16.0.0, SVG Export Plug-In . SVG Version: 6.00 Build 0)  -->
<!DOCTYPE svg PUBLIC "-//W3C//DTD SVG 1.1//EN" "http://www.w3.org/Graphics/SVG/1.1/DTD/svg11.dtd">
<svg version="1.1" id="Layer_1" xmlns="http://www.w3.org/2000/svg" xmlns:xlink="http://www.w3.org/1999/xlink" x="0px" y="0px"
	 width="111.506px" height="212.51px" viewBox="0 0 111.506 212.51" enable-background="new 0 0 111.506 212.51"
	 xml:space="preserve">
<g id="Layer_1_1_">
	<path fill="#09476B" d="M111.507,212.511H-0.001v-55.754c0-30.811,24.942-55.752,55.754-55.752l0,0
		c30.811,0,55.752,24.942,55.752,55.752v55.754H111.507z"/>
	<path fill="#002635" d="M47.704,101.58c0,0-6.595,5.613-6.345,6.531c0.25,0.916,4.333,3.75,4.333,3.75l-4.833,7.166l23.083,50.082
		L47.704,101.58z"/>
	<path fill="#002635" d="M70.753,103.053c0,0,6.617,5.085,6.5,5.978c-0.117,0.891-3.59,4.07-3.59,4.07l5.602,6.109l-15.281,49.908
		L70.753,103.053z"/>
	<path fill="#EEEEEE" d="M63.964,169.108c0,0-14.09-50.17-16.227-62.561c-0.489-2.837-1.697-5.443,2.511-6.109
		c3.54-0.561,12.164-0.528,15.125-0.188c0.9,0.104,10.708-1.938,6.72,25.231C69.521,142.999,63.964,169.108,63.964,169.108z"/>
	<polyline fill="#8B2A90" points="58.25,106.295 55.382,137.735 57.115,145.499 62.865,165.374 63.982,169.267 66.412,157.53 
		68.615,146.249 69.584,140.661 62.86,106.295 60.396,106.295 	"/>
	<path fill="#8B2A90" d="M55.482,100.004c0.727,0,8.877,0.069,9.5,0.132s-2.499,6.956-2.499,6.956l-3.942-0.324
		C58.541,106.769,54.755,100.004,55.482,100.004z"/>
	<path d="M55.99,58.81H26.347V29.167C26.347,13.036,39.384,0,55.515,0h29.643v29.643C85.157,45.773,72.121,58.81,55.99,58.81z"/>
	<path fill="#F1D4AF" d="M55.772,93.752L55.772,93.752c-21.648,0-39.172-17.524-39.172-39.172l0,0
		c0-21.647,17.524-39.172,39.172-39.172l0,0c21.646,0,39.172,17.524,39.172,39.172l0,0C94.944,76.229,77.421,93.752,55.772,93.752z"
		/>
	<path display="none" d="M82.771,48.69L82.771,48.69c-1.319,0-2.387-1.068-2.387-2.387l0,0c0-1.319,1.067-2.387,2.387-2.387l0,0
		c1.318,0,2.387,1.068,2.387,2.387l0,0C85.157,47.623,84.089,48.69,82.771,48.69z"/>
	<path display="none" d="M39.769,48.839L39.769,48.839c-1.402,0-2.537-1.135-2.537-2.537l0,0c0-1.402,1.135-2.537,2.537-2.537l0,0
		c1.402,0,2.537,1.135,2.537,2.537l0,0C42.306,47.706,41.171,48.839,39.769,48.839z"/>
	<path fill="none" stroke="#000000" stroke-width="2.0675" stroke-linecap="round" stroke-linejoin="round" d="M76.009,58.778
		c-9.973,5.8-17,5.715-28.373,0.114"/>
	<path fill="none" stroke="#000000" stroke-width="2.7678" stroke-linecap="round" stroke-linejoin="round" d="M27.575,46.304
		c0-4.875,3.949-8.824,8.823-8.824c4.875,0,8.823,3.949,8.823,8.824"/>
	<path fill="none" stroke="#000000" stroke-width="2.7678" stroke-linecap="round" stroke-linejoin="round" d="M77.226,46.311
		c0-4.875,3.949-8.824,8.824-8.824s8.823,3.949,8.823,8.824"/>
	<path fill="none" stroke="#000000" stroke-width="2.1009" stroke-linecap="square" d="M45.995,46.637h29.997"/>
	<path fill="none" stroke="#000000" stroke-width="0.867" stroke-linecap="square" d="M27.582,46.628
		c0,4.874,3.949,8.823,8.824,8.823c4.874,0,8.823-3.949,8.823-8.823"/>
	<path fill="none" stroke="#000000" stroke-width="0.867" stroke-linecap="square" d="M77.21,46.637
		c0,4.875,3.949,8.824,8.824,8.824c4.874,0,8.823-3.949,8.823-8.824"/>
	<path fill="none" stroke="#000000" stroke-width="0.9337" stroke-linecap="square" d="M28.14,47.108
		c-3.666-1.078-7.366-2.166-11.033-3.243 M17.426,42.776c3.667,1.078,7.368,2.166,11.034,3.243"/>
	<path fill="none" stroke="#000000" stroke-width="2.3677" stroke-linecap="round" stroke-linejoin="round" d="M90.462,46.63
		c-3.103,1.804-5.287,1.777-8.824,0.036"/>
	<path fill="none" stroke="#000000" stroke-width="2.3677" stroke-linecap="round" stroke-linejoin="round" d="M40.818,47.388
		c-3.101,1.804-5.287,1.777-8.823,0.035"/>
</g>
<g id="Layer_1_2_">
	<path fill="none" stroke="#000000" stroke-width="2" stroke-miterlimit="10" d="M26.326,83.748
		c0-16.131,13.037-29.167,29.168-29.167h29.643v28.643"/>
	<path fill="none" stroke="#000000" stroke-width="2" stroke-miterlimit="10" d="M55.752,148.333L55.752,148.333
		c-21.648,0-39.172-17.523-39.172-39.172l0,0c0-21.646,17.524-39.171,39.172-39.171l0,0c21.646,0,39.172,17.524,39.172,39.171l0,0
		C94.924,130.81,77.4,148.333,55.752,148.333z"/>
	<path fill="none" stroke="#000000" stroke-width="2.0675" stroke-linecap="round" stroke-linejoin="round" d="M75.988,113.359
		c-9.973,5.8-17,5.716-28.373,0.114"/>
	<path fill="none" stroke="#000000" stroke-width="0.867" stroke-linecap="square" d="M27.562,101.209
		c0,4.874,3.949,8.823,8.824,8.823c4.874,0,8.823-3.949,8.823-8.823"/>
	<path fill="none" stroke="#000000" stroke-width="0.867" stroke-linecap="square" d="M77.189,101.218
		c0,4.875,3.949,8.824,8.824,8.824c4.874,0,8.823-3.949,8.823-8.824"/>
	<path fill="none" stroke="#000000" stroke-width="2.3677" stroke-linecap="round" stroke-linejoin="round" d="M90.441,101.211
		c-3.103,1.804-5.287,1.777-8.824,0.036"/>
	<path fill="none" stroke="#000000" stroke-width="2.3677" stroke-linecap="round" stroke-linejoin="round" d="M40.798,101.969
		c-3.101,1.804-5.287,1.777-8.823,0.035"/>
	<path fill="none" stroke="#000000" stroke-width="2" stroke-linecap="round" d="M18.096,98.324l9.458,2.561
		c0-4.875,3.949-8.824,8.823-8.824c4.875,0,8.823,3.949,8.823,8.824l0.773,0.333h29.997l1.233-0.326
		c0-4.875,3.949-8.824,8.824-8.824s8.823,3.949,8.823,8.824"/>
</g>
</svg>
