<?xml version="1.0" encoding="utf-8"?>
<!-- Generator: Adobe Illustrator 16.0.0, SVG Export Plug-In . SVG Version: 6.00 Build 0)  -->
<!DOCTYPE svg PUBLIC "-//W3C//DTD SVG 1.1//EN" "http://www.w3.org/Graphics/SVG/1.1/DTD/svg11.dtd">
<svg version="1.1" xmlns="http://www.w3.org/2000/svg" xmlns:xlink="http://www.w3.org/1999/xlink" x="0px" y="0px"
	 width="111.506px" height="212.51px" viewBox="34.384 0 111.506 212.51" enable-background="new 34.384 0 111.506 212.51"
	 xml:space="preserve">
<g id="Layer_2" display="none">
	<rect display="inline" fill="#ABE3FF" width="240" height="300"/>
</g>
<g id="Layer_1">
	<path fill="#09476B" d="M145.891,212.511H34.384v-55.753c0-30.811,24.942-55.753,55.753-55.753l0,0
		c30.811,0,55.753,24.942,55.753,55.753V212.511z"/>
	<path fill="#002635" d="M82.089,101.58c0,0-6.595,5.613-6.345,6.53s4.333,3.75,4.333,3.75l-4.833,7.167l23.083,50.082
		L82.089,101.58z"/>
	<path fill="#002635" d="M105.138,103.053c0,0,6.617,5.084,6.5,5.977c-0.118,0.892-3.59,4.07-3.59,4.07l5.602,6.11l-15.282,49.908
		L105.138,103.053z"/>
	<path fill="#EEEEEE" d="M98.348,169.109c0,0-14.089-50.17-16.226-62.561c-0.489-2.837-1.697-5.443,2.511-6.109
		c3.54-0.561,12.164-0.528,15.125-0.188c0.9,0.104,10.708-1.938,6.719,25.231C103.905,142.999,98.348,169.109,98.348,169.109z"/>
	<polyline fill="#8B2A90" points="92.635,106.296 89.767,137.735 91.5,145.5 97.25,165.375 98.367,169.266 100.797,157.531 
		103,146.25 103.969,140.662 97.245,106.296 94.781,106.296 	"/>
	<path fill="#8B2A90" d="M89.867,100.005c0.727,0,8.877,0.069,9.5,0.132s-2.499,6.957-2.499,6.957l-3.942-0.325
		C92.926,106.769,89.14,100.005,89.867,100.005z"/>
	<path d="M90.375,58.81H60.732V29.167C60.732,13.036,73.768,0,89.899,0h29.643v29.643C119.542,45.774,106.506,58.81,90.375,58.81z"
		/>
	<path fill="#F1D4AF" d="M90.157,93.753L90.157,93.753c-21.648,0-39.172-17.524-39.172-39.172l0,0
		c0-21.647,17.524-39.172,39.172-39.172l0,0c21.647,0,39.172,17.524,39.172,39.172l0,0C129.329,76.229,111.805,93.753,90.157,93.753
		z"/>
	<path display="none" d="M117.155,48.691L117.155,48.691c-1.319,0-2.387-1.068-2.387-2.387l0,0c0-1.319,1.068-2.387,2.387-2.387l0,0
		c1.319,0,2.387,1.068,2.387,2.387l0,0C119.542,47.623,118.474,48.691,117.155,48.691z"/>
	<path display="none" d="M74.153,48.84L74.153,48.84c-1.402,0-2.537-1.135-2.537-2.537l0,0c0-1.402,1.135-2.537,2.537-2.537l0,0
		c1.402,0,2.537,1.135,2.537,2.537l0,0C76.69,47.706,75.555,48.84,74.153,48.84z"/>
	<path fill="none" stroke="#000000" stroke-width="2.0675" stroke-linecap="round" stroke-linejoin="round" d="M110.393,58.779
		c-9.972,5.8-17,5.715-28.372,0.114"/>
	<path fill="none" stroke="#000000" stroke-width="2.7678" stroke-linecap="round" stroke-linejoin="round" d="M61.96,46.304
		c0-4.875,3.949-8.824,8.823-8.824c4.875,0,8.824,3.949,8.824,8.824"/>
	<path fill="none" stroke="#000000" stroke-width="2.7678" stroke-linecap="round" stroke-linejoin="round" d="M111.61,46.311
		c0-4.875,3.949-8.824,8.824-8.824s8.824,3.949,8.824,8.824"/>
	<path fill="none" stroke="#000000" stroke-width="2.1009" stroke-linecap="square" d="M80.38,46.637h29.997"/>
	<path fill="none" stroke="#000000" stroke-width="0.867" stroke-linecap="square" d="M61.967,46.629
		c0,4.874,3.949,8.823,8.824,8.823c4.874,0,8.823-3.949,8.823-8.823"/>
	<path fill="none" stroke="#000000" stroke-width="0.867" stroke-linecap="square" d="M111.595,46.637
		c0,4.875,3.949,8.824,8.824,8.824c4.874,0,8.823-3.949,8.823-8.824"/>
	<path fill="none" stroke="#000000" stroke-width="0.9337" stroke-linecap="square" d="M62.525,47.109
		c-3.667-1.078-7.367-2.166-11.034-3.243 M51.811,42.777c3.667,1.078,7.367,2.166,11.034,3.243"/>
	<path fill="none" stroke="#000000" stroke-width="2.3677" stroke-linecap="round" stroke-linejoin="round" d="M124.846,46.631
		c-3.102,1.804-5.287,1.777-8.824,0.036"/>
	<path fill="none" stroke="#000000" stroke-width="2.3677" stroke-linecap="round" stroke-linejoin="round" d="M75.203,47.388
		c-3.101,1.804-5.287,1.777-8.823,0.035"/>
</g>
</svg>
