<?xml version="1.0" encoding="UTF-8" standalone="no"?>
<svg width="128px" height="109px" viewBox="0 0 128 109" version="1.1" xmlns="http://www.w3.org/2000/svg" xmlns:xlink="http://www.w3.org/1999/xlink">
    <!-- Generator: Sketch 3.6.1 (26313) - http://www.bohemiancoding.com/sketch -->
    <title>Pants bullet</title>
    <desc>Created with Sketch.</desc>
    <defs></defs>
    <g id="A" stroke="none" stroke-width="1" fill="none" fill-rule="evenodd">
        <g id="pants-bullet" transform="translate(0.000000, -10.000000)">
            <g id="Pants-bullet" transform="translate(0.000000, 10.000000)">
                <path d="M96.6037736,1.26860562 L96.6037736,0.955728754 L31.3962264,0.955728754 L31.3962264,1.14818443 L0.866493453,95.1045564 L42.3795318,108.59296 L64.1853092,41.4816783 L85.9910865,108.59296 L127.504125,95.1045564 L96.9757099,1.14775619 L96.6037736,1.26860562 Z" id="Combined-Shape" fill="#000000"></path>
                <path d="M41.0566038,17.9304922 C42.3904235,17.9304922 43.4716981,16.8447978 43.4716981,15.505526 C43.4716981,14.1662541 42.3904235,13.0805598 41.0566038,13.0805598 C39.722784,13.0805598 38.6415094,14.1662541 38.6415094,15.505526 C38.6415094,16.8447978 39.722784,17.9304922 41.0566038,17.9304922 Z M89.3584906,17.9304922 C90.6923103,17.9304922 91.7735849,16.8447978 91.7735849,15.505526 C91.7735849,14.1662541 90.6923103,13.0805598 89.3584906,13.0805598 C88.0246708,13.0805598 86.9433962,14.1662541 86.9433962,15.505526 C86.9433962,16.8447978 88.0246708,17.9304922 89.3584906,17.9304922 Z M48.3018868,20.3554584 C48.3018868,20.3554584 53.7516975,25.8187587 65.7514695,25.8187587 C77.7512414,25.8187587 82.1132075,20.3554584 82.1132075,20.3554584 L48.3018868,20.3554584 Z" id="Combined-Shape" fill="#FFFFFF"></path>
            </g>
        </g>
    </g>
</svg>